# xmcd
#
# Track frame offsets:
# 183
# 15068
# 28278
# 40555
# 54295
# 66345
# 79890
# 93098
# 104348
# 116488
# 130875
# 144438
# 155675
# 165520
# 176478
# 193583
# 213068
# 224960
# 237720
# 250550
#
# Disc length: 3539 seconds
#
#
# Revision: 0
# Processed by: cddbd v1.5PL3 Copyright (c) Steve Scherf et al.
# Submitted via: FreeRIP 2.51 
#
DISCID=0e0dd114
DTITLE=T-Bone Walker - The Essential
DYEAR=1994
DGENRE=Blues
TTITLE0=Got A Break Baby
TTITLE1=Mean Old World
TTITLE2=T-Bone Jumps Again
TTITLE3=Call It Stormy Monday
TTITLE4=She's My Old Time Used To Be
TTITLE5=T-Bone Shuffle
TTITLE6=You're My Best Poker Hand
TTITLE7=Strollin' With Bones
TTITLE8=Alimony Blues
TTITLE9=Cold, Cold Feeling
TTITLE10=Get These Blues Off Me
TTITLE11=EveryTime
TTITLE12=Party Girl
TTITLE13=Pony Tail
TTITLE14=T-Bone Blues
TTITLE15=Blues For Marili
TTITLE16=Evenin'
TTITLE17=Blues Rock
TTITLE18=Two Bones And A Pick
TTITLE19=Shufflin' The Blues
EXTD=
EXTT0=
EXTT1=
EXTT2=
EXTT3=
EXTT4=
EXTT5=
EXTT6=
EXTT7=
EXTT8=
EXTT9=
EXTT10=
EXTT11=
EXTT12=
EXTT13=
EXTT14=
EXTT15=
EXTT16=
EXTT17=
EXTT18=
EXTT19=
PLAYORDER=
